<?xml version="1.0" encoding="UTF-8"?>
<svg id="Layer_2" data-name="Layer 2" xmlns="http://www.w3.org/2000/svg" viewBox="0 0 664.35 679.47">
  <g id="Layer_1-2" data-name="Layer 1">
    <g>
      <path d="M648.82,374.04c-3.89-1.23-8.17-1.63-12.28-1.65-28.17-.14-56.34-.06-84.51-.09-2.09,0-4.18-.24-6.66-.4,0-2.5,0-4.47,0-6.45-.09-24.67-.08-49.34-.36-74-.04-3.46,.67-5.91,3.19-8.32,14.75-14.08,24.99-31.18,31.84-50.19,11.83-32.84,13.23-67.11,12.37-101.53-.24-9.48-5.84-16.27-14.8-19.45-8.93-3.17-17.08-1.2-23.86,5.58-5.04,5.05-6.26,11.48-6.61,18.32-.93,17.95-1.53,35.93-3.22,53.82-1.31,13.93-5.36,27.32-12.31,40.31-1.14-2-2.1-3.51-2.9-5.1-7.47-14.92-17.39-27.97-29.66-39.25-23.41-21.52-51.39-34.27-81.88-41.77-44.52-10.95-89.54-12.47-134.89-6.09-34.21,4.81-66.53,15.01-95.52,34.22-18.83,12.47-34.7,27.99-46.33,47.57-2.02,3.39-4.06,6.77-6.13,10.22-.63-.51-.94-.65-1.09-.9-.52-.85-1-1.72-1.47-2.6-8.79-16.51-12.11-34.42-13.28-52.82-.89-13.96-1.23-27.95-2.02-41.91-.6-10.52-8.95-19.41-19.06-20.72-14.63-1.9-26.4,8.36-26.09,23.8,.34,16.97,1.1,33.97,2.73,50.86,3.54,36.68,16,69.57,42.89,95.94,1.34,1.31,2.26,3.72,2.26,5.62,.04,26.33-.11,52.67-.21,79,0,1.92,0,3.85,0,6.26h-7.25c-27.67,0-55.34-.02-83.01,.03-3.16,0-6.34,.17-9.46,.6-13.23,1.82-22,15.24-18.44,28.06,3.09,11.14,11.61,17.02,25.08,17.05,28.67,.06,57.34,.02,86.01,.02h7.08c0,6.93,.06,12.91,0,18.89-.3,27.57,3.71,54.43,13.73,80.21,1.67,4.29,.88,6.8-2.47,9.82-30.19,27.27-51.39,59.77-56.61,100.97-1.39,10.98-2.17,22.26-1.32,33.25,.8,10.39,10.76,17.96,20.75,18.22,11.01,.28,20.51-6.53,22.87-17.05,1.05-4.67,1.18-9.58,1.34-14.4,.61-18.63,5.05-36.2,14.33-52.41,6.71-11.72,15.25-21.99,25.41-31.31,1.52,1.94,2.78,3.48,3.97,5.07,29.51,39.38,68.09,65.49,115.34,78.95,7.41,2.11,14.49,1.82,21.01-2.7,7.95-5.5,10.07-13.55,10.07-22.68-.04-121.51-.03-243.02-.02-364.53,0-2.67-.05-5.34,.12-8,.96-15.07,15.86-25.87,30.51-22.18,12.2,3.07,19.01,12.71,19.01,27.01,0,121.85,0,243.69,0,365.54,0,2.17-.03,4.34,.05,6.5,.52,15.13,14.13,25.52,28.73,21.58,39.35-10.62,73.33-30.42,101.22-60.28,7.12-7.63,13.59-15.87,20.5-24,21.21,19.79,35.23,43.27,38.5,72.44,.87,7.76,.78,15.65,1.93,23.37,1.83,12.22,12.41,20.07,24.71,19.04,11.15-.93,19.84-10.59,20.01-22.4,.06-4.33-.06-8.67-.32-12.99-1.46-24.23-7.22-47.27-19.04-68.66-10.53-19.05-24.69-35.1-40.67-49.65-2.31-2.1-2.8-3.9-1.67-6.88,2.42-6.37,4.57-12.86,6.45-19.4,6.97-24.26,8.32-49.14,7.98-74.2-.03-2.25,0-4.5,0-7.13,3.05,0,5.2,0,7.35,0,27.84,0,55.67,.02,83.51-.03,2.82,0,5.66-.19,8.46-.58,10.6-1.45,18.38-9.59,19.54-20.31,1.07-9.83-5.41-19.96-15.42-23.12Z"/>
      <path d="M235.15,108.15c58.36-16.78,117.24-16.96,176.46-5.52,8.15,1.58,16.2,3.72,23.13,5.33,10.25-.24,17.36-4.01,22-11.74,4.69-7.82,4.34-15.89-.22-23.67C431.39,29.57,393.91,4.31,344.49,.53c-60.02-4.58-106.1,20.55-137.29,72.26-5.92,9.82-5.19,18.97,1.47,27.41,6.31,8,16.06,10.95,26.48,7.95Z"/>
    </g>
  </g>
</svg>