<?xml version="1.0" encoding="UTF-8"?>
<svg id="Layer_2" data-name="Layer 2" xmlns="http://www.w3.org/2000/svg" viewBox="0 0 990.5 240.08">
  <g id="Layer_1-2" data-name="Layer 1">
    <g>
      <path d="M209.43,184.6c-30.99,.19-61.98,.1-92.97,.1h-6.87C149.22,124.56,188.14,65.48,227.7,5.45c-3.14,0-4.93,0-6.72,0-45.32,0-90.63,0-135.95,0-19.33,0-38.65,.15-57.98-.11-4.47-.06-5.69,1.3-5.64,5.61,.15,12.82-.1,25.65-.15,38.48,0,1.42,.25,2.84,.44,4.74H118.58C78.84,114.42,39.62,173.9,0,233.97H214.62c.11-2.05,.28-3.68,.28-5.3,.02-12.83-.18-25.66,.11-38.48,.1-4.42-1.17-5.61-5.58-5.59Z"/>
      <path d="M990.04,130.17c-.6-23.12-12.41-40.41-33.82-49.49-21.23-9-41.45-5.92-59.14,9.37-4.58,3.96-8.3,8.91-12.12,13.09-31.54-33.22-65.56-36.21-102.62-7.4v-17.25h-55.61c0,4.08-.02,8.03,0,11.97,.09,15.82-.88,31.74,.62,47.42,1.24,13.01,1.22,25.64,.17,38.67-1.5,18.7-.53,37.59-.59,56.4,0,.28,.31,.56,.61,1.07h54.97v-6.4c0-27.82-.06-55.65,.02-83.47,.05-16.21,13.82-27.35,29.5-24.05,11.08,2.33,18.62,12.07,18.66,24.55,.09,27.82,.03,55.65,.03,83.47v5.69h55.71v-6.4c0-27.49,.02-54.98-.02-82.47,0-5.84,1.17-11.26,4.95-15.85,7.16-8.67,17.31-11.63,27.28-8.06,9.71,3.47,15.78,12.46,15.79,23.72,.05,27.82,.02,55.65,.02,83.47v5.72h55.41c.18-.88,.37-1.35,.37-1.82,.01-33.99,.65-67.99-.22-101.96Z"/>
      <path d="M542.44,173.54c-1.11-2.74-1.31-5.84-2.01-9.17-28.76,26.92-68.29,21.63-89.75-1.49-21.47-23.13-22.09-59.77-.66-83.79,11.56-12.96,26.35-19.89,43.48-20.51,21.63-.77,39.15,8.42,53.37,26.19,.14-2.95,.28-4.55,.28-6.14,.01-20.83-.11-41.65,.12-62.48,.04-4.05-1.26-5.81-4.98-7.18-38.4-14.19-75.65-11.83-110.8,9.19-33.42,19.99-53.47,49.86-57.77,88.73-4.41,39.78,9.05,73.91,39.12,100.09,38.7,33.7,82.93,40.32,130.96,22.47,2.66-.99,3.48-2.43,3.42-5.15-.4-17.03,1.88-34.28-4.77-50.76Z"/>
      <path d="M209.97,54.17c-33.46,28.6-39.35,73.71-13.51,107.25,19.45,25.25,46.12,36.08,73.48,36.84,26.28-.13,46.61-6.43,64.47-19.95,39.48-29.87,44.05-83.37,10.19-118.11-34.96-35.86-96.5-38.62-134.63-6.03Zm64.12,97.51c-20.28,.15-36.65-16.35-36.63-36.94,.02-20.17,16.33-36.51,36.49-36.55,19.8-.04,36.49,16.72,36.54,36.71,.06,20.12-16.29,36.63-36.4,36.78Z"/>
      <path d="M707.21,106.43c-17.78-19.88-40.72-29.28-68.53-30.98-21.6-.79-42.71,4.83-61.65,18.15-41.5,29.19-46.09,84.42-9.95,119.94,35.2,34.6,97.43,35.5,133.82,1.92,32.73-30.2,35.59-76.3,6.31-109.04Zm-72.33,88.66c-20.7-.04-37.27-16.72-37.28-37.51,0-20.79,16.55-37.47,37.26-37.55,20.72-.08,37.37,16.48,37.45,37.25,.08,21.1-16.51,37.86-37.43,37.81Z"/>
    </g>
  </g>
</svg>